#!OML:ASF H:\GeneralSubjects\Female5\Project 1\Capture day 1\Session 1\Female5.ASF
:FULLY-SPECIFIED
:DEGREES
365
root -9.49827 16.1793 14.9276 0.967862 77.4411 -9.60391
lowerback 17.4066 4.12166 11.3255
upperback -15.6081 8.67905 -7.53015
thorax -26.4514 0.113396 -19.8821
lowerneck -8.72732 -5.19378 6.75165
upperneck 48.352 -7.3529 1.55383
head 20.5219 -0.143532 -1.27934
rclavicle -1.94809e-014 -4.45278e-014
rhumerus -70.968 -10.6121 -81.5888
rradius 35.8247
rwrist -9.59439
rhand -23.6719 -19.2456
rfingers 7.12502
rthumb 2.79423 -49.2071
lclavicle -1.94809e-014 -4.45278e-014
lhumerus -57.0301 -31.9886 83.5577
lradius 30.7549
lwrist -3.38885
lhand -24.4008 29.724
lfingers 7.12502
lthumb 2.09031 59.6935
rfemur 0.153206 18.0307 34.6108
rtibia -0.0120718
rfoot -16.0342 -27.2227
rtoes -21.0419
lfemur -10.1121 -18.2561 -23.3017
ltibia 16.6523
lfoot -23.8705 -10.7752
ltoes -22.4879
366
root -9.49462 16.1728 14.9644 -0.0701615 77.7252 -10.7212
lowerback 17.3396 4.15277 11.5992
upperback -15.651 8.82902 -7.4496
thorax -26.3671 0.150048 -19.9713
lowerneck -8.67851 -5.10369 6.55674
upperneck 48.3617 -7.15393 1.65761
head 20.5413 -0.0774241 -1.15123
rclavicle -5.1684e-015 4.92986e-014
rhumerus -70.6527 -10.3044 -81.8139
rradius 35.4064
rwrist -9.3416
rhand -23.5339 -18.8119
rfingers 7.12502
rthumb 2.92752 -48.7716
lclavicle -5.1684e-015 4.92986e-014
lhumerus -56.7233 -31.0705 82.5307
lradius 31.0171
lwrist -3.21957
lhand -26.086 28.7955
lfingers 7.12502
lthumb 0.462683 58.7748
rfemur 0.294892 18.0851 35.026
rtibia -0.208907
rfoot -15.9538 -27.6242
rtoes -21.5772
lfemur -10.4999 -18.1296 -22.8442
ltibia 17.0032
lfoot -23.5199 -11.1953
ltoes -21.7697
367
root -9.49177 16.1681 14.9968 -0.61264 77.9261 -11.3316
lowerback 17.3074 4.17748 11.8329
upperback -15.6515 8.94531 -7.40072
thorax -26.2584 0.18103 -20.0644
lowerneck -8.69446 -5.00197 6.37116
upperneck 48.2541 -6.94177 1.68735
head 20.4823 -0.0323359 -1.06762
rclavicle 3.02153e-014 -8.26944e-014
rhumerus -70.2819 -10.0051 -82.0831
rradius 34.9832
rwrist -9.21006
rhand -23.2355 -19.1025
rfingers 7.12502
rthumb 3.21572 -49.058
lclavicle 3.02153e-014 -8.26944e-014
lhumerus -56.5757 -30.33 81.7482
lradius 31.6595
lwrist -2.67406
lhand -27.0419 28.6504
lfingers 7.12502
lthumb -0.460575 58.6296
rfemur 0.327293 17.8395 35.2436
rtibia -0.284164
rfoot -16.2735 -27.4916
rtoes -20.8217
lfemur -10.8546 -18.1493 -22.5482
ltibia 17.7431
lfoot -23.4525 -11.9065
ltoes -21.171
368
root -9.49138 16.1626 15.0267 -0.256717 78.0501 -10.9974
lowerback 17.3687 4.2156 11.8948
upperback -15.6314 9.02305 -7.4119
thorax -26.2244 0.204585 -20.1442
lowerneck -8.81916 -4.90008 6.35129
upperneck 48.1258 -6.72954 1.54017
head 20.415 0.0149122 -1.1092
rclavicle -2.78299e-014 -3.49861e-014
rhumerus -70.032 -9.82205 -82.217
rradius 34.7808
rwrist -8.87783
rhand -23.3246 -19.3285
rfingers 7.12502
rthumb 3.12963 -49.2853
lclavicle -2.78299e-014 -3.49861e-014
lhumerus -56.6381 -29.9595 81.3919
lradius 32.2302
lwrist -2.08888
lhand -25.7152 29.5975
lfingers 7.12502
lthumb 0.820766 59.5757
rfemur 0.281689 17.6169 35.2361
rtibia -0.202962
rfoot -17.0761 -27.0401
rtoes -19.1528
lfemur -11.1985 -17.9072 -22.5158
ltibia 18.1663
lfoot -23.0422 -12.2061
ltoes -20.7935
369
root -9.49017 16.155 15.0535 0.264538 78.1556 -10.4923
lowerback 17.4249 4.26718 11.9116
upperback -15.6053 9.10441 -7.41618
thorax -26.1814 0.242889 -20.1839
lowerneck -9.07564 -4.82275 6.39185
upperneck 48.1685 -6.57363 1.37539
head 20.5116 0.0697113 -1.17946
rclavicle -4.29375e-014 -8.26944e-014
rhumerus -69.6903 -9.60526 -82.2898
rradius 34.573
rwrist -8.58108
rhand -23.6456 -19.4152
rfingers 7.12502
rthumb 2.81963 -49.3763
lclavicle -4.29375e-014 -8.26944e-014
lhumerus -56.794 -29.6316 81.2447
lradius 32.6042
lwrist -1.82878
lhand -21.9001 32.8764
lfingers 7.12502
lthumb 4.50525 62.8085
rfemur 0.264971 17.4602 35.2043
rtibia -0.166936
rfoot -17.8787 -26.7044
rtoes -17.8899
lfemur -11.4543 -17.8181 -22.5385
ltibia 18.5806
lfoot -22.8826 -12.6359
ltoes -20.2933
370
root -9.49159 16.1457 15.0809 0.0815479 78.2533 -10.7484
lowerback 17.4654 4.3082 12.0228
upperback -15.5855 9.21131 -7.34872
thorax -26.1192 0.289158 -20.1838
lowerneck -9.02903 -4.84167 6.06635
upperneck 48.0503 -6.5037 1.368
head 20.422 0.0226123 -1.11476
rclavicle 8.0309e-014 -3.33958e-014
rhumerus -69.3216 -9.36755 -82.2555
rradius 34.3892
rwrist -8.43263
rhand -23.4228 -20.0129
rfingers 7.12502
rthumb 3.03476 -49.9711
lclavicle 8.0309e-014 -3.33958e-014
lhumerus -57.0884 -29.3031 81.236
lradius 33.1577
lwrist -1.63443
lhand -22.0912 32.9773
lfingers 7.12502
lthumb 4.32074 62.9132
rfemur 0.10092 17.2258 35.321
rtibia 0.0398928
rfoot -18.1164 -26.5927
rtoes -18.373
lfemur -11.9039 -17.6825 -22.3112
ltibia 19.2721
lfoot -22.7708 -13.1792
ltoes -19.7667
371
root -9.49547 16.132 15.1134 0.041525 78.3515 -10.8642
lowerback 17.5166 4.34774 12.0198
upperback -15.5928 9.28516 -7.2962
thorax -26.1407 0.324793 -20.1413
lowerneck -9.05345 -4.80433 5.92146
upperneck 47.907 -6.40235 1.34354
head 20.3285 0.0181418 -1.08744
rclavicle 5.52621e-014 -2.54444e-014
rhumerus -69.1624 -9.16353 -82.2457
rradius 34.4195
rwrist -8.48447
rhand -23.3282 -20.2689
rfingers 7.12502
rthumb 3.12614 -50.2258
lclavicle 5.52621e-014 -2.54444e-014
lhumerus -57.7698 -29.3349 81.5147
lradius 33.9428
lwrist -1.35341
lhand -25.317 29.9298
lfingers 7.12502
lthumb 1.20544 59.9061
rfemur -0.123056 17.1733 35.4317
rtibia 0.425986
rfoot -19.0969 -26.143
rtoes -16.4457
lfemur -12.6511 -17.1535 -22.0523
ltibia 20.3237
lfoot -22.2808 -13.7649
ltoes -19.4041
